<svg viewBox="0 0 60 61" fill="none"
  xmlns="http://www.w3.org/2000/svg">
  <g id="Vector" filter="url(#filter0_d_29_453)">
    <path fill-rule="evenodd" clip-rule="evenodd" d="M18 30.8271C18 40.5697 20.3218 42.907 30 42.907C39.6782 42.907 42 40.5697 42 30.8271C42 21.0843 39.6782 18.7471 30 18.7471C20.3218 18.7471 18 21.0843 18 30.8271ZM22.8391 33.3365L26.6029 24.7255C27.2383 23.274 28.4603 22.4867 30 22.4867C31.5397 22.4867 32.7617 23.274 33.3971 24.7255L37.1609 33.3365C37.332 33.7548 37.4786 34.2961 37.4786 34.7635C37.4786 36.9039 35.9878 38.4047 33.8615 38.4047C33.1373 38.4047 32.5621 38.2186 31.9798 38.0303C31.3832 37.8374 30.7792 37.642 30 37.642C29.2297 37.642 28.611 37.8391 28.0026 38.0329C27.4142 38.2203 26.8354 38.4047 26.1385 38.4047C24.0122 38.4047 22.5214 36.9039 22.5214 34.7635C22.5214 34.2961 22.668 33.7548 22.8391 33.3365ZM30 26.2263L26.2851 34.6897C27.3849 34.173 28.6558 33.927 30 33.927C31.2953 33.927 32.615 34.173 33.666 34.6897L30 26.2263Z" fill="white"/>
  </g>
  <defs>
    <filter id="filter0_d_29_453" x="0" y="0.74707" width="60" height="60.16" filterUnits="userSpaceOnUse" color-interpolation-filters="sRGB">
      <feFlood flood-opacity="0" result="BackgroundImageFix"/>
      <feColorMatrix in="SourceAlpha" type="matrix" values="0 0 0 0 0 0 0 0 0 0 0 0 0 0 0 0 0 0 127 0" result="hardAlpha"/>
      <feOffset/>
      <feGaussianBlur stdDeviation="9"/>
      <feComposite in2="hardAlpha" operator="out"/>
      <feColorMatrix type="matrix" values="0 0 0 0 0.329412 0 0 0 0 0.407843 0 0 0 0 1 0 0 0 0.7 0"/>
      <feBlend mode="normal" in2="BackgroundImageFix" result="effect1_dropShadow_29_453"/>
      <feBlend mode="normal" in="SourceGraphic" in2="effect1_dropShadow_29_453" result="shape"/>
    </filter>
  </defs>
</svg>
