<?xml version="1.0" standalone="no"?>
<!DOCTYPE svg PUBLIC "-//W3C//DTD SVG 20010904//EN"
 "http://www.w3.org/TR/2001/REC-SVG-20010904/DTD/svg10.dtd">
<svg version="1.0" xmlns="http://www.w3.org/2000/svg"
 width="280.000000pt" height="280.000000pt" viewBox="0 0 280.000000 280.000000"
 preserveAspectRatio="xMidYMid meet">
<metadata>
Created by potrace 1.14, written by Peter Selinger 2001-2017
</metadata>
<g transform="translate(0.000000,280.000000) scale(0.100000,-0.100000)"
fill="#000000" stroke="none">
<path d="M1120 2793 c-242 -17 -434 -52 -572 -104 -97 -37 -230 -121 -282
-180 -187 -206 -266 -536 -266 -1109 0 -354 30 -607 94 -807 111 -340 341
-503 806 -570 142 -20 671 -29 852 -14 264 22 432 61 588 138 79 38 109 61
181 132 71 72 94 102 132 181 115 235 153 505 144 1030 -6 377 -29 551 -97
744 -147 415 -509 571 -1314 564 -122 -1 -241 -3 -266 -5z m418 -449 c60 -17
93 -35 145 -81 72 -63 86 -90 252 -468 121 -277 168 -383 206 -465 118 -260
133 -309 127 -422 -6 -109 -34 -181 -101 -255 -107 -117 -278 -160 -447 -114
-41 12 -111 31 -155 43 -54 14 -108 22 -165 21 -82 0 -105 -5 -315 -63 -237
-65 -459 40 -529 250 -47 144 -36 220 64 445 32 72 93 209 135 305 42 96 95
216 117 265 22 50 58 133 80 185 58 139 100 210 158 264 111 103 265 136 428
90z"/>
<path d="M1365 1845 c-19 -44 -40 -89 -45 -100 -22 -49 -144 -324 -210 -475
-40 -91 -86 -195 -103 -233 -16 -37 -28 -70 -25 -72 3 -3 20 1 39 9 19 8 73
25 119 37 74 20 109 23 260 23 151 0 186 -3 260 -23 46 -12 100 -29 119 -37
19 -8 36 -12 39 -10 2 3 -12 40 -31 83 -19 43 -66 148 -103 233 -84 195 -161
371 -230 525 l-53 120 -36 -80z"/>
</g>
</svg>
